<?xml version="1.0" standalone="no"?>
<!DOCTYPE svg PUBLIC "-//W3C//DTD SVG 20010904//EN"
 "http://www.w3.org/TR/2001/REC-SVG-20010904/DTD/svg10.dtd">
<svg version="1.0" xmlns="http://www.w3.org/2000/svg"
 width="1559.000000pt" height="1559.000000pt" viewBox="0 0 1559.000000 1559.000000"
 preserveAspectRatio="xMidYMid meet">

<g transform="translate(0.000000,1559.000000) scale(0.100000,-0.100000)"
fill="#000000" stroke="none">
<path d="M6260 8699 c-19 -5 -152 -16 -295 -24 -692 -38 -1025 -103 -1242
-241 -130 -83 -186 -144 -198 -217 -6 -30 -37 -84 -116 -198 l-109 -156 -81
-7 c-327 -27 -598 -142 -718 -305 -65 -87 -69 -111 -77 -400 -7 -232 -4 -236
182 -243 l91 -4 -15 44 c-21 64 -12 173 21 237 96 188 342 234 500 94 83 -73
124 -200 98 -309 -8 -36 -7 -50 5 -67 l14 -23 1188 0 c944 0 1192 3 1212 13
27 14 29 28 15 123 -9 64 12 140 57 208 18 27 37 58 43 68 8 15 22 18 80 18
l70 0 -41 -20 c-52 -26 -100 -73 -127 -124 -17 -32 -22 -58 -22 -121 0 -94 20
-140 85 -199 57 -51 97 -66 177 -66 187 0 311 163 259 342 -19 66 -78 137
-138 166 l-43 21 225 0 c199 0 221 -1 194 -13 -46 -20 -112 -83 -137 -130 -17
-32 -22 -58 -22 -121 0 -94 20 -140 84 -198 56 -50 101 -67 181 -67 80 0 125
17 181 67 64 58 84 104 84 198 0 63 -5 89 -22 120 -27 50 -77 99 -128 124
l-40 20 87 1 87 0 30 -37 c17 -21 41 -61 53 -90 l22 -53 1330 1 1331 0 29 60
c39 83 89 119 165 119 l56 0 -45 -21 c-99 -44 -154 -132 -154 -244 0 -157 110
-265 269 -265 107 0 194 51 240 140 27 51 32 169 11 225 -21 54 -84 121 -139
146 l-42 19 230 0 230 0 -50 -24 c-128 -59 -184 -219 -125 -354 42 -97 130
-152 245 -152 160 0 265 106 265 265 0 115 -53 200 -155 246 l-40 19 66 0 c58
0 68 -3 91 -27 37 -41 60 -79 67 -116 l7 -32 142 -3 142 -3 0 786 0 785 -2880
0 -2880 0 0 -695 0 -695 -672 2 c-526 2 -672 6 -676 16 -3 9 118 12 581 12
l584 0 44 32 c24 17 50 39 56 47 10 12 12 159 10 644 -2 714 5 660 -87 636z
m810 -100 c24 -13 57 -41 74 -62 l31 -39 3 -149 4 -149 -116 0 -116 0 0 108
c0 111 -12 152 -45 152 -32 0 -35 -39 -35 -435 0 -396 3 -435 35 -435 35 0 45
40 45 177 l0 133 115 0 115 0 0 -154 c0 -165 -8 -205 -49 -249 -46 -50 -97
-70 -197 -75 -168 -9 -269 45 -293 156 -15 72 -15 822 0 893 14 64 64 118 134
142 77 26 237 19 295 -14z m584 -10 c55 -19 111 -75 125 -124 14 -53 15 -825
1 -877 -15 -53 -51 -92 -112 -119 -49 -22 -69 -24 -240 -27 l-188 -4 0 587 0
587 188 -5 c122 -3 201 -9 226 -18z m426 -479 l0 -500 105 0 105 0 0 -85 0
-85 -220 0 -220 0 0 585 0 585 115 0 115 0 0 -500z m1560 410 l0 -90 -105 0
-105 0 0 90 0 90 105 0 105 0 0 -90z m1160 0 l0 -90 -105 0 -105 0 0 90 0 90
105 0 105 0 0 -90z m-310 -55 l0 -85 30 0 30 0 0 -74 c0 -74 0 -75 -27 -78
l-28 -3 -3 -280 c-3 -322 -1 -342 33 -351 24 -6 25 -10 25 -80 l0 -74 -72 0
c-95 0 -144 14 -166 48 -15 23 -18 66 -22 382 l-5 355 -27 3 c-28 3 -28 4 -28
78 l0 74 30 0 30 0 0 85 0 85 100 0 100 0 0 -85z m-4456 39 c18 -18 20 -51 6
-89 l-10 -26 -132 3 c-76 2 -133 7 -134 13 -2 6 18 34 45 63 l49 52 80 0 c60
0 85 -4 96 -16z m2683 -142 c50 -26 87 -72 102 -127 7 -25 11 -150 11 -325 0
-175 -4 -300 -11 -325 -25 -92 -98 -145 -210 -153 -145 -10 -245 48 -268 156
-14 67 -14 580 0 642 17 74 66 124 149 151 47 16 182 4 227 -19z m362 13 c16
-8 40 -28 54 -45 14 -16 28 -30 31 -30 3 0 6 18 6 40 l0 40 100 0 100 0 0
-500 c0 -551 1 -541 -62 -596 -46 -41 -120 -58 -213 -51 -148 11 -213 78 -215
220 l0 57 105 0 105 0 0 -54 c0 -78 41 -110 70 -55 9 16 15 229 7 229 -2 0
-22 -18 -45 -39 -77 -74 -184 -64 -222 21 -18 40 -20 67 -20 343 0 325 5 361
50 407 23 23 37 28 75 28 25 0 59 -7 74 -15z m1007 -13 c85 -43 114 -104 114
-234 l0 -78 -105 0 -105 0 0 79 c0 59 -4 84 -16 95 -38 39 -64 10 -64 -71 0
-55 4 -66 29 -96 17 -18 63 -55 103 -81 85 -56 116 -90 140 -160 20 -58 24
-180 8 -238 -24 -86 -102 -138 -217 -146 -91 -6 -150 10 -201 54 -60 51 -72
85 -72 208 l0 107 103 -3 102 -3 3 -94 c3 -93 11 -121 38 -121 30 0 44 31 44
97 0 87 -16 111 -120 183 -148 102 -170 137 -170 280 0 55 6 104 14 124 16 39
79 95 127 113 53 20 195 11 245 -15z m1149 6 c42 -22 85 -67 101 -105 8 -19
14 -69 14 -123 l0 -90 -99 0 -99 0 -4 80 c-4 89 -23 125 -56 104 -16 -10 -17
-38 -17 -324 0 -286 1 -314 17 -324 14 -8 22 -7 35 7 14 14 19 38 21 117 l4
100 99 0 99 0 0 -110 c0 -122 -10 -158 -56 -203 -42 -43 -81 -59 -150 -65
-134 -10 -216 25 -259 112 l-25 50 0 315 c0 286 2 320 19 356 23 51 65 90 116
110 52 19 198 15 240 -7z m528 6 c52 -18 103 -63 123 -111 9 -20 14 -68 14
-123 l0 -90 -99 0 -99 0 -4 80 c-4 94 -20 121 -63 102 -23 -10 -25 -17 -25
-69 0 -79 20 -107 124 -177 138 -93 165 -141 166 -299 0 -110 -11 -145 -59
-194 -47 -46 -116 -66 -211 -61 -93 5 -156 37 -198 100 -25 39 -27 48 -27 152
l0 111 103 3 102 3 0 -101 c0 -98 1 -101 25 -112 43 -19 60 8 59 93 -1 85 -14
107 -105 167 -167 113 -184 140 -184 292 0 92 3 109 23 142 27 43 69 76 121
94 50 18 158 17 214 -2z m-2123 -464 l0 -470 -105 0 -105 0 0 470 0 470 105 0
105 0 0 -470z m1160 0 l0 -470 -105 0 -105 0 0 470 0 470 105 0 105 0 0 -470z
m-4769 241 c26 -27 29 -36 29 -96 0 -56 -4 -69 -24 -90 -29 -29 -91 -39 -189
-32 -61 4 -74 8 -94 31 -19 23 -23 39 -23 95 0 57 3 71 23 88 32 29 41 31 150
32 96 1 99 0 128 -28z m-1103 -96 c2 -66 -2 -120 -9 -137 -6 -15 -33 -48 -60
-73 l-48 -45 -146 0 c-134 0 -146 2 -143 17 2 11 15 20 33 23 l30 5 3 115 c2
106 1 114 -13 99 -9 -9 -26 -58 -37 -110 -19 -92 -45 -139 -74 -139 -16 0 -54
48 -54 68 0 15 143 225 183 270 20 22 26 22 176 20 l156 -3 3 -110z m-1178
-420 c0 -12 -112 -155 -140 -179 -35 -29 -104 -37 -113 -12 -8 19 47 111 82
135 44 32 112 61 144 61 15 0 27 -2 27 -5z m369 -116 c63 -14 117 -44 173 -97
78 -73 104 -118 30 -51 -108 97 -219 139 -369 139 -88 0 -91 7 -7 18 63 9 102
7 173 -9z m-629 -287 c0 -25 -7 -45 -18 -55 -24 -22 -32 -13 -32 38 0 46 5 55
32 55 14 0 18 -8 18 -38z m3646 -67 c58 -38 81 -124 49 -185 -47 -92 -164
-104 -235 -24 -25 29 -30 43 -30 89 0 44 5 59 27 86 50 59 129 73 189 34z
m600 0 c58 -38 81 -124 49 -185 -46 -89 -159 -104 -231 -29 -26 27 -29 37 -29
94 0 54 4 68 25 90 51 55 129 68 186 30z m3307 11 c43 -17 85 -68 93 -111 15
-84 -77 -176 -163 -162 -138 23 -166 217 -39 273 40 17 69 17 109 0z m618 -7
c29 -14 46 -32 60 -62 24 -54 24 -71 -2 -123 -42 -89 -155 -108 -224 -38 -71
70 -52 183 37 227 44 22 81 21 129 -4z m-4991 -174 c6 -8 9 -19 5 -25 -9 -14
-1595 -14 -1595 0 0 6 17 10 38 11 20 1 359 7 752 13 393 7 731 14 751 14 22
1 42 -4 49 -13z"/>
<path d="M7470 8024 l0 -415 37 3 c30 2 39 8 44 28 12 43 10 734 -2 769 -9 27
-16 31 -45 31 l-34 0 0 -416z"/>
<path d="M8550 8221 c-6 -12 -10 -129 -10 -311 0 -182 4 -299 10 -311 13 -23
33 -24 54 -3 14 13 16 56 16 314 0 258 -2 301 -16 314 -21 21 -41 20 -54 -3z"/>
<path d="M9102 8208 c-13 -13 -18 -451 -6 -482 9 -22 51 -20 64 3 13 25 13
431 0 465 -10 28 -38 34 -58 14z"/>
<path d="M7007 7129 c-9 -5 -24 -24 -33 -41 -33 -64 11 -138 83 -138 48 0 72
16 89 57 18 42 5 94 -29 118 -24 17 -83 19 -110 4z"/>
<path d="M7595 7116 c-32 -32 -40 -69 -25 -107 17 -39 46 -59 90 -59 44 0 73
20 90 59 26 64 -20 131 -90 131 -30 0 -47 -6 -65 -24z"/>
<path d="M10927 7112 c-37 -39 -38 -99 -1 -136 59 -58 164 -14 164 69 0 84
-105 127 -163 67z"/>
<path d="M11526 7114 c-20 -20 -26 -36 -26 -68 1 -44 13 -66 47 -84 64 -34
143 12 143 83 0 83 -105 127 -164 69z"/>
<path d="M3933 7309 c-79 -15 -152 -71 -189 -146 -27 -54 -26 -183 0 -237 26
-52 79 -104 130 -127 61 -28 167 -25 232 5 88 41 154 144 154 241 0 165 -163
296 -327 264z m133 -144 c98 -64 78 -219 -33 -256 -102 -33 -212 69 -183 171
26 92 138 136 216 85z"/>
<path d="M3919 7111 c-21 -22 -29 -39 -29 -66 0 -27 8 -44 29 -66 73 -72 193
0 161 97 -23 68 -109 87 -161 35z"/>
</g>
</svg>
