<?xml version="1.0" standalone="no"?>
<!DOCTYPE svg PUBLIC "-//W3C//DTD SVG 20010904//EN"
 "http://www.w3.org/TR/2001/REC-SVG-20010904/DTD/svg10.dtd">
<svg version="1.0" xmlns="http://www.w3.org/2000/svg"
 width="1125.000000pt" height="786.000000pt" viewBox="0 0 1125.000000 786.000000"
 preserveAspectRatio="xMidYMid meet">

<g transform="translate(0.000000,786.000000) scale(0.100000,-0.100000)"
fill="#000000" stroke="none">
<path d="M4680 6960 c-52 -4 -108 -13 -125 -19 -16 -7 -61 -18 -100 -26 -101
-19 -213 -60 -360 -132 -91 -44 -133 -68 -154 -87 -10 -9 -22 -16 -27 -16 -5
0 -25 -13 -44 -30 -19 -16 -38 -29 -43 -30 -20 -1 -284 -262 -323 -320 -13
-19 -37 -55 -55 -79 -17 -25 -49 -79 -71 -120 -22 -42 -44 -80 -48 -86 -4 -5
-13 -28 -20 -50 -7 -22 -19 -49 -26 -60 -6 -11 -17 -44 -23 -74 -6 -30 -16
-60 -22 -67 -6 -7 -17 -55 -24 -106 -8 -51 -20 -115 -26 -143 -18 -76 -15
-337 4 -410 9 -33 19 -89 23 -125 3 -36 14 -83 24 -105 10 -22 21 -58 25 -80
3 -22 15 -54 26 -71 10 -17 19 -38 19 -46 0 -17 89 -194 126 -250 13 -21 36
-57 51 -80 15 -24 48 -68 73 -99 25 -31 59 -74 75 -95 90 -113 326 -322 422
-374 74 -39 161 -17 232 58 30 32 35 44 39 104 4 63 3 71 -29 120 -18 29 -39
60 -46 68 -35 39 -73 94 -73 105 0 6 -11 25 -25 41 -14 16 -25 34 -25 41 0 7
-11 33 -25 59 -14 26 -25 57 -25 69 0 13 -8 46 -17 75 -13 42 -15 60 -6 98 25
109 42 160 69 208 16 29 39 70 52 93 29 53 152 175 200 200 21 11 44 27 51 35
8 9 21 16 31 16 9 0 29 9 42 20 14 10 47 24 73 30 26 6 61 18 78 27 40 20 309
34 587 31 194 -3 195 -3 263 25 96 40 155 90 188 163 10 23 25 47 33 53 8 7
18 25 21 41 3 15 15 36 26 46 10 9 19 22 19 29 0 6 13 32 30 58 16 26 27 47
23 47 -4 0 3 10 14 23 12 12 28 38 37 57 10 19 30 58 46 85 16 28 38 68 50 90
12 22 34 63 50 90 16 28 36 64 45 80 9 17 29 53 45 80 17 28 39 68 50 90 12
22 34 63 51 90 16 28 36 66 44 85 8 19 22 48 30 63 24 46 19 135 -12 203 -26
58 -80 133 -96 134 -4 0 -26 12 -50 28 l-42 27 -665 1 c-366 1 -708 -2 -760
-6z"/>
<path d="M6596 6139 c-24 -6 -53 -24 -74 -45 -33 -34 -36 -42 -39 -113 -5 -86
-2 -93 82 -212 60 -86 89 -132 110 -179 9 -19 26 -55 38 -80 19 -39 22 -61 21
-175 0 -122 -5 -151 -34 -195 -5 -8 -17 -31 -25 -50 -55 -121 -163 -241 -284
-315 -9 -5 -32 -20 -52 -32 -19 -13 -42 -23 -50 -23 -8 0 -31 -9 -52 -20 -69
-37 -211 -53 -552 -61 -176 -4 -337 -11 -358 -14 -22 -4 -62 -22 -89 -41 -53
-34 -128 -116 -128 -140 0 -7 -6 -17 -13 -21 -7 -4 -21 -27 -31 -50 -11 -24
-23 -43 -28 -43 -4 0 -8 -5 -8 -10 0 -10 -26 -58 -111 -208 -15 -26 -36 -65
-48 -87 -12 -22 -34 -62 -50 -90 -16 -27 -38 -68 -50 -90 -12 -22 -32 -58 -46
-80 -13 -22 -34 -58 -45 -80 -12 -22 -34 -62 -50 -90 -16 -27 -38 -68 -50 -90
-11 -22 -36 -69 -55 -105 -32 -60 -35 -72 -35 -150 1 -78 4 -90 33 -139 42
-70 110 -127 178 -148 82 -26 1123 -32 1349 -8 193 20 253 30 310 48 25 8 63
19 85 25 73 20 174 57 187 70 7 7 17 12 23 12 16 0 140 64 170 89 15 11 32 21
37 21 17 0 261 197 314 253 33 35 138 162 151 183 7 10 24 36 38 57 13 21 32
52 41 70 9 17 20 34 23 37 4 3 13 21 21 40 7 19 19 42 26 50 7 8 17 35 24 59
6 24 20 60 31 80 10 20 19 46 19 58 0 12 9 46 20 76 11 30 25 96 30 148 6 52
14 130 19 173 5 44 7 95 5 115 -2 20 -11 108 -20 195 -8 88 -21 171 -28 185
-8 14 -19 51 -25 82 -7 31 -21 74 -31 95 -11 21 -20 45 -20 52 0 8 -9 31 -20
51 -10 20 -26 52 -35 71 -9 19 -27 53 -40 75 -13 22 -33 56 -44 76 -11 19 -27
41 -35 48 -9 8 -16 18 -16 23 0 5 -10 23 -22 39 -74 95 -91 117 -115 144 -49
57 -180 190 -234 238 -30 26 -63 55 -74 65 -93 84 -165 105 -269 81z"/>
<path d="M1125 2470 c-16 -3 -46 -22 -65 -41 l-35 -34 -3 -176 -3 -175 33 -42
c21 -26 44 -43 63 -47 17 -3 163 -4 325 -3 l295 3 3 24 c2 12 1 34 -2 47 l-6
24 -254 0 c-247 0 -254 1 -287 23 l-34 23 -3 104 c-3 118 5 144 51 160 18 6
131 10 277 10 217 0 249 2 254 16 11 28 6 71 -8 83 -15 13 -545 14 -601 1z"/>
<path d="M1862 2468 c-13 -13 -16 -56 -6 -82 5 -14 38 -16 266 -16 167 0 267
-4 280 -11 29 -16 48 -70 48 -141 0 -95 -13 -131 -55 -151 -31 -15 -72 -17
-285 -17 l-250 0 -6 -24 c-3 -13 -4 -35 -2 -47 l3 -24 311 -3 311 -2 41 32
c26 21 43 44 47 63 4 17 5 103 3 190 l-3 160 -35 34 c-25 24 -48 37 -80 42
-79 13 -574 11 -588 -3z"/>
<path d="M3320 2465 c-8 -10 -10 -77 -8 -224 l3 -211 43 -40 42 -40 269 0
c148 0 276 3 285 6 24 9 20 60 -6 78 -19 13 -57 16 -221 16 -198 0 -252 8
-272 40 -4 6 -7 89 -6 183 0 95 -3 178 -8 185 -12 20 -106 25 -121 7z"/>
<path d="M4157 2471 c-22 -5 -51 -22 -71 -42 -34 -34 -35 -35 -38 -139 -1 -58
-2 -139 0 -181 2 -71 4 -77 38 -115 l36 -39 282 -3 c320 -4 324 -3 377 75 29
43 29 46 29 179 0 128 -1 138 -26 180 -14 24 -40 54 -57 66 -31 22 -40 23
-282 25 -137 1 -267 -2 -288 -6z m466 -113 c56 -32 57 -34 57 -149 l0 -109
-40 -25 c-38 -24 -45 -25 -208 -25 -175 0 -225 8 -242 40 -6 10 -10 69 -10
129 l0 111 33 20 c29 18 50 20 210 20 123 0 184 -4 200 -12z"/>
<path d="M5034 2473 c-20 -3 -45 -18 -70 -44 l-39 -40 0 -180 0 -180 42 -40
43 -39 317 2 318 3 0 153 c0 125 -3 154 -15 162 -24 15 -466 8 -482 -8 -16
-16 -13 -93 4 -103 7 -5 84 -9 171 -9 90 0 167 -4 178 -10 24 -13 25 -52 1
-73 -28 -26 -351 -25 -402 1 l-35 17 -3 122 -3 123 33 20 c31 19 51 20 285 20
239 0 253 1 263 19 18 34 12 71 -12 80 -22 8 -532 11 -594 4z"/>
<path d="M5812 2467 c-9 -11 -12 -78 -10 -263 l3 -249 53 -3 c30 -2 60 2 67 8
11 9 14 59 13 251 -1 132 -5 243 -8 248 -3 6 -28 13 -56 16 -38 5 -53 4 -62
-8z"/>
<path d="M6135 2472 c-16 -2 -42 -15 -57 -30 -27 -25 -28 -30 -28 -123 l0 -98
38 -35 37 -36 232 0 c127 0 243 -4 257 -10 31 -11 33 -29 7 -61 -19 -24 -21
-24 -274 -29 -195 -4 -258 -8 -270 -19 -22 -17 -22 -67 -1 -75 9 -3 155 -6
326 -6 l310 0 29 29 c28 29 29 32 29 128 0 54 -4 103 -8 108 -4 6 -23 21 -42
35 -34 25 -39 25 -279 30 -212 4 -245 7 -254 21 -8 13 -6 24 6 43 l17 26 246
0 c284 0 311 6 295 68 -5 16 -17 28 -33 33 -27 7 -528 8 -583 1z"/>
<path d="M6886 2472 c-8 -14 -10 -57 -2 -79 7 -22 11 -23 136 -23 92 0 131 -4
137 -12 4 -7 10 -101 13 -208 l5 -195 59 -3 c41 -2 62 1 67 10 5 7 9 93 9 191
0 104 4 186 10 198 10 17 22 19 133 19 134 0 154 6 162 52 10 56 -3 58 -382
58 -188 -1 -344 -4 -347 -8z"/>
<path d="M7760 2461 c-8 -16 -10 -91 -6 -264 2 -133 5 -243 5 -245 1 -2 29 -2
64 0 l62 3 3 249 c1 137 -1 253 -6 258 -5 5 -31 11 -59 15 -45 5 -52 3 -63
-16z"/>
<path d="M8105 2467 c-22 -4 -50 -21 -69 -40 l-31 -32 -3 -176 -3 -175 33 -42
c21 -26 44 -43 63 -47 17 -3 163 -4 325 -3 l295 3 3 24 c2 12 1 34 -2 47 l-6
24 -251 0 c-329 0 -329 0 -329 157 0 110 5 125 40 146 24 15 63 17 283 17 282
0 267 -4 267 66 0 27 -5 35 -22 39 -35 7 -551 1 -593 -8z"/>
<path d="M8913 2472 c-21 -2 -41 -14 -58 -33 -23 -28 -25 -39 -25 -120 0 -88
0 -89 36 -129 l36 -40 242 0 c203 0 245 -2 264 -16 22 -15 22 -16 5 -44 -9
-16 -26 -31 -37 -34 -12 -3 -126 -6 -254 -6 -197 0 -236 -2 -257 -16 -30 -20
-33 -59 -6 -74 12 -6 135 -10 328 -10 l309 0 27 28 c26 27 27 33 27 133 l0
105 -42 30 -43 29 -238 1 c-199 1 -241 4 -254 16 -13 14 -13 19 1 47 l17 31
245 0 c276 0 304 5 304 59 0 47 -31 52 -330 49 -146 -1 -279 -3 -297 -6z"/>
<path d="M1159 1641 c-36 -9 -84 -51 -99 -88 -32 -82 24 -185 108 -199 58 -9
108 3 135 32 21 23 57 26 57 4 0 -4 18 -15 39 -25 58 -26 127 -14 149 26 19
33 32 33 48 0 19 -38 29 -43 47 -24 9 11 17 40 19 72 3 49 6 55 31 64 42 14
57 -5 57 -72 0 -64 13 -86 42 -70 10 6 33 9 51 7 l32 -3 5 62 c6 74 19 91 55
75 22 -10 25 -17 25 -67 0 -49 3 -57 24 -66 18 -8 30 -7 54 5 26 13 32 14 42
1 16 -19 89 -29 123 -16 18 7 32 23 39 43 l11 32 26 -30 c35 -41 80 -58 135
-50 55 9 68 24 65 73 -6 77 25 81 36 6 4 -27 11 -53 17 -60 6 -8 38 -10 96 -8
48 2 93 0 102 -5 30 -16 50 13 50 73 0 54 1 56 35 67 19 6 39 9 45 5 5 -3 10
-32 10 -64 0 -35 6 -64 15 -77 15 -19 15 -19 30 0 8 11 15 29 15 40 0 12 4 26
8 33 8 13 25 -39 37 -108 7 -44 18 -55 65 -63 50 -9 102 19 117 64 7 19 12 74
12 122 1 99 -5 108 -77 108 -71 0 -104 -11 -121 -41 -20 -35 -38 -37 -53 -4
-15 33 -57 44 -153 40 -91 -3 -107 4 -98 46 4 22 2 29 -11 29 -11 0 -16 -9
-16 -27 -1 -29 -20 -63 -36 -63 -5 0 -17 14 -26 30 -21 37 -25 37 -73 4 -32
-22 -45 -25 -81 -19 -55 8 -119 -11 -139 -42 -20 -30 -26 -29 -46 6 -24 41
-99 52 -157 22 -50 -26 -60 -26 -92 -1 -29 23 -99 26 -145 6 -24 -10 -39 -10
-70 -1 -22 7 -67 11 -100 11 -58 -1 -61 -3 -74 -34 -18 -39 -36 -41 -53 -5
-10 21 -24 30 -56 37 -49 10 -121 -8 -129 -33 -17 -54 -27 -71 -43 -71 -10 0
-32 -11 -48 -25 -69 -58 -162 -14 -162 77 0 78 97 131 145 78 18 -20 41 -25
69 -14 12 5 8 13 -19 41 -26 27 -42 35 -77 37 -23 2 -54 0 -69 -3z m1459 -134
c23 -28 14 -117 -12 -117 -23 0 -36 24 -36 65 0 55 24 81 48 52z m-1120 -9 c7
-7 12 -26 12 -43 0 -17 -5 -36 -12 -43 -7 -7 -26 -12 -43 -12 -17 0 -36 5 -43
12 -7 7 -12 26 -12 43 0 17 5 36 12 43 7 7 26 12 43 12 17 0 36 -5 43 -12z
m933 2 c23 -13 26 -62 3 -84 -18 -19 -75 -21 -92 -4 -7 7 -12 26 -12 43 0 17
5 36 12 43 15 15 63 16 89 2z m673 -6 c20 -20 20 -43 0 -72 -18 -26 -56 -29
-78 -6 -19 18 -21 80 -3 87 26 11 66 6 81 -9z m-28 -154 c8 0 14 -4 14 -10 0
-5 -13 -10 -30 -10 -21 0 -30 5 -30 16 0 11 5 14 16 10 9 -3 22 -6 30 -6z"/>
<path d="M5957 1643 c-4 -3 -7 -16 -7 -28 0 -41 -24 -60 -80 -62 -53 -1 -80
-15 -80 -39 0 -23 -26 -16 -38 11 -10 21 -19 25 -59 27 -85 4 -116 -1 -138
-22 -25 -24 -38 -25 -55 -5 -24 29 -85 39 -145 25 -45 -11 -65 -11 -111 -1
-71 16 -74 12 -74 -91 0 -95 5 -111 31 -97 15 8 19 21 19 63 0 64 15 83 48 60
12 -8 22 -24 22 -34 0 -10 9 -35 21 -54 16 -27 28 -36 59 -41 53 -9 94 1 131
32 l31 26 23 -29 c21 -26 28 -29 91 -30 77 -1 100 6 109 36 8 26 28 25 40 -2
6 -13 24 -26 45 -31 40 -10 137 -1 146 14 9 14 8 229 0 257 -7 22 -17 28 -29
15z m-503 -149 c3 -9 6 -26 6 -39 0 -44 -10 -55 -49 -55 -45 0 -61 14 -61 55
0 17 5 36 12 43 18 18 85 15 92 -4z m230 0 c36 -35 9 -94 -43 -94 -35 0 -51
17 -51 55 0 17 5 36 12 43 17 17 64 15 82 -4z m237 6 c13 -7 19 -21 19 -45 0
-37 -20 -55 -62 -55 -33 0 -48 18 -48 57 0 46 44 67 91 43z"/>
<path d="M6836 1628 c-2 -7 -7 -24 -10 -38 -11 -49 -16 -51 -91 -37 -68 13
-70 14 -73 45 -3 27 -7 32 -30 32 -21 0 -31 -8 -42 -33 -10 -22 -23 -33 -40
-35 -62 -6 -99 -25 -110 -55 -39 -113 23 -173 155 -148 48 8 71 9 86 0 35 -18
59 13 59 76 0 55 8 65 51 65 17 0 19 -7 19 -58 0 -45 4 -63 19 -76 19 -17 20
-17 30 3 6 11 11 43 11 70 0 28 5 60 12 70 9 14 8 23 -5 42 -10 13 -17 36 -17
51 0 29 -17 48 -24 26z m-258 -130 c7 -7 12 -26 12 -43 0 -39 -16 -55 -55 -55
-39 0 -55 16 -55 55 0 39 16 55 55 55 17 0 36 -5 43 -12z"/>
<path d="M3618 1603 c-2 -18 -12 -32 -29 -40 -15 -7 -32 -26 -39 -43 -14 -34
-22 -37 -41 -14 -19 23 -69 46 -85 40 -8 -3 -14 -14 -14 -24 0 -18 -18 -42
-32 -42 -4 0 -14 14 -23 30 -11 21 -23 30 -40 30 -26 0 -41 -15 -26 -24 5 -4
17 -31 25 -60 28 -95 72 -123 96 -61 12 32 20 32 58 -5 45 -43 67 -39 85 13
17 53 45 57 61 10 6 -18 14 -33 19 -33 48 -1 47 -1 47 48 0 35 5 54 18 65 39
35 62 8 62 -72 0 -56 8 -65 43 -52 16 6 38 6 63 -1 22 -7 63 -11 92 -11 44 0
57 4 81 27 l29 28 17 -25 c23 -35 89 -46 139 -22 20 10 36 21 36 26 0 4 12 1
28 -7 15 -7 38 -14 51 -14 13 0 52 -5 87 -12 73 -13 104 -3 123 40 10 22 9 28
-14 52 -26 27 -26 29 -11 53 15 22 15 25 0 38 -11 9 -38 13 -77 12 -69 -3 -87
7 -87 48 0 26 -4 29 -30 29 -17 0 -29 -3 -29 -7 1 -5 1 -27 0 -50 -1 -50 -29
-67 -63 -36 -30 27 -126 23 -149 -6 -20 -25 -26 -26 -45 -6 -23 23 -88 38
-130 31 -23 -5 -49 -20 -66 -38 -16 -17 -30 -29 -31 -27 -2 2 -10 16 -20 30
-10 17 -30 30 -54 36 -29 6 -42 16 -53 40 -11 25 -22 33 -42 33 -22 0 -27 -5
-30 -27z"/>
<path d="M8398 1603 c-2 -20 -10 -30 -28 -35 -126 -35 -130 -39 -130 -124 0
-78 58 -107 171 -85 32 7 64 9 70 6 6 -4 26 -4 45 -1 34 7 34 7 34 60 0 40 5
57 20 71 26 24 50 5 50 -39 0 -56 11 -76 49 -92 50 -21 114 -11 146 24 l25 27
24 -29 c21 -27 31 -30 90 -34 50 -3 72 0 91 12 23 15 25 23 25 91 0 93 -12
104 -113 100 -53 -2 -73 -8 -91 -24 -28 -26 -37 -26 -58 -2 -20 24 -100 38
-132 23 -20 -9 -141 -7 -192 3 -16 4 -24 15 -28 40 -6 30 -11 35 -36 35 -24 0
-29 -5 -32 -27z m-8 -112 c25 -49 0 -91 -55 -91 -36 0 -45 12 -45 65 0 36 9
43 57 44 22 1 36 -5 43 -18z m614 3 c36 -35 9 -94 -43 -94 -35 0 -51 17 -51
55 0 17 5 36 12 43 17 17 64 15 82 -4z"/>
<path d="M7785 1575 c-28 -27 -32 -57 -10 -75 8 -7 15 -29 16 -49 2 -81 7 -86
89 -88 41 -2 99 -4 129 -5 47 -1 57 2 73 23 10 13 22 29 28 36 12 14 14 73 3
73 -5 0 -15 13 -25 29 -13 24 -25 31 -63 37 -27 4 -56 2 -68 -4 -12 -6 -36
-13 -54 -16 -28 -5 -34 -1 -52 29 -24 42 -34 43 -66 10z m107 -121 c-1 -53
-13 -72 -30 -51 -16 19 -18 68 -3 96 18 34 34 13 33 -45z m146 44 c7 -7 12
-29 12 -50 0 -31 -4 -39 -24 -44 -42 -10 -70 -1 -80 28 -15 43 6 78 47 78 18
0 38 -5 45 -12z"/>
<path d="M4684 1564 c-4 -15 -2 -49 5 -76 6 -27 11 -60 11 -72 0 -12 10 -32
23 -44 21 -20 25 -21 45 -6 14 10 23 27 23 47 2 31 2 31 6 4 2 -15 14 -34 27
-42 35 -23 106 -29 147 -12 32 13 37 21 46 64 13 69 -3 105 -55 122 -62 21
-139 -1 -158 -43 -11 -26 -13 -28 -14 -9 0 12 -8 38 -17 58 -14 30 -22 35 -50
35 -27 0 -34 -5 -39 -26z m281 -109 l0 -50 -38 -3 c-45 -4 -67 11 -67 45 0 48
17 64 63 61 l42 -3 0 -50z"/>
<path d="M6078 1553 c-34 -5 -45 -40 -30 -90 6 -21 7 -44 2 -57 -15 -41 5 -57
71 -55 43 2 64 -2 77 -14 10 -10 30 -17 44 -17 21 0 27 6 32 31 8 42 0 51 -40
43 -28 -5 -34 -3 -34 10 0 10 -7 30 -15 46 -11 21 -12 36 -6 54 7 17 6 27 -2
34 -16 13 -65 20 -99 15z"/>
<path d="M7175 1555 c-5 -2 -36 -6 -68 -10 -54 -6 -60 -9 -82 -46 -14 -21 -29
-39 -34 -39 -5 0 -15 17 -22 38 -14 43 -27 54 -50 42 -15 -9 -16 -13 -2 -51
18 -55 62 -129 75 -129 6 0 28 16 49 35 22 19 43 35 48 35 5 0 18 -15 29 -34
16 -27 29 -35 61 -41 24 -4 55 -2 76 5 20 6 59 10 88 8 l52 -3 3 62 c2 37 8
66 17 73 21 17 52 3 60 -28 4 -15 11 -30 17 -33 6 -4 4 -16 -7 -32 -16 -25
-16 -26 14 -41 58 -31 141 -8 141 38 0 35 -10 56 -26 56 -19 0 -18 25 3 46 16
15 16 17 -3 31 -29 22 -63 27 -100 15 -24 -7 -44 -7 -69 1 -27 8 -43 7 -74 -5
-30 -12 -49 -13 -83 -6 -59 13 -101 18 -113 13z"/>
<path d="M9125 1546 c-25 -18 -23 -164 2 -184 25 -18 32 -5 35 67 2 47 7 67
20 75 30 19 52 -14 49 -74 -2 -46 0 -51 24 -60 38 -14 45 -6 45 54 0 63 20 97
47 80 13 -8 19 -26 21 -70 4 -68 11 -80 41 -64 15 8 21 20 20 38 -1 15 -1 36
-1 47 2 18 3 18 18 -4 12 -17 13 -26 5 -34 -48 -48 76 -94 138 -51 19 14 22
22 16 53 -3 20 -7 56 -8 80 -2 41 -4 45 -34 53 -51 13 -95 -3 -113 -40 -16
-33 -30 -33 -30 -2 0 34 -27 42 -153 46 -92 3 -128 0 -142 -10z"/>
</g>
</svg>
